<svg id="svg2859" xmlns="http://www.w3.org/2000/svg" viewBox="0 0 216.94 258.22"><defs><style>.cls-1{font-size:24px;fill:#78350f;font-family:AromiaScript-Black, Aromia Script;font-weight:800;}</style></defs><g id="layer1"><path d="M159.69,248l-10.3.6-.95-3.21c-.92-3.13-3.08-4-2.8-1.15.17,1.77-1.52,1.92-2.18.19-.27-.69-1.66-1.32-3.09-1.4-4.51-.26-5.66-2.49-6.37-12.36-.64-8.91-.74-9.17-4.56-12.92-2.14-2.11-4.43-3.63-5.09-3.37-1.35.52-5.84-3.55-4.92-4.46.32-.33,2.27.35,4.33,1.5,12.17,6.84,22.5,7.79,32.07,3,6.36-3.21,8.76-3.38,9.46-.69.64,2.46,2.27,2.6,3.16.26.82-2.12-2.67-5.26-5.81-5.25-1.18,0-4.52,1.12-7.42,2.47a27.82,27.82,0,0,1-11.5,2.6c-7.69.18-10.8-.59-17.39-4.28-4.4-2.47-6.52-3-14.25-3.3-6.6-.28-9.08-.06-9.08.8,0,1.26-1.22,1.27-15.54.13-6.69-.53-8.26-.37-9.37,1-.94,1.13-1,2-.3,2.86s0,2-2.79,4.12c-4.38,3.29-6.29,6.65-8.63,15.12-1.93,7-6.67,12.51-10.77,12.51-2.11,0-2.6-.47-2.6-2.5,0-3-2-3.26-4.42-.59a5.68,5.68,0,0,0-1.25,4.94c.7,4.44,1.42,5.15,5.23,5.15,2.39,0,3.44.46,3.44,1.5,0,1.93,2.65,1.95,3.73,0,.7-1.25,2.17-1.33,9.66-.48,8.29.95,11.19.87,22.73-.6l4.63-.59.67,3.57c.69,3.68,1.43,4.13,8.08,4.86,1.65.18,6.38.31,10.5.28,6,0,7.5-.36,7.5-1.56s-1.62-1.53-8-1.64c-11.24-.19-10.63,0-9.88-3,.39-1.57.19-2.89-.51-3.32-1.66-1-2.65-10.71-1.26-12.39.62-.74,1.42-6.53,1.78-12.86l.66-11.51,4.6-.07c7.51-.12,10.82,4.32,11.56,15.54.53,8.12,3.43,16.48,7.29,21,3,3.51,6,4.09,15.26,3,2.48-.3,3.71-.34,2.75-.09-3.53.91-1.61,2.31,3.25,2.39l9.2.15c2.35,0,4.37-.43,4.58-1.08s-1.65-1.19-5.95-1.27l-6.33-.12,5-.85c2.75-.47,5.79-.61,6.75-.31,2.24.69,5.75-.41,5.75-1.81C170,247.71,166.72,247.56,159.69,248ZM54.5,245.65a2.11,2.11,0,0,1-1.5,1,2.09,2.09,0,0,1-1.5-1c-.34-.55.33-1,1.5-1S54.84,245.1,54.5,245.65ZM61,244.2a31.53,31.53,0,0,1,3.63-4c3.76-3.76,5.39-4.19,3.32-.87h0C66.92,241,61,245.14,61,244.2Zm38.71-19.3a1.44,1.44,0,0,1-1.45,1c-.56-.12-1.05,2.88-1.15,7-.09,4-.26,8.78-.39,10.7l-.22,3.5h-5c-2.75,0-10-.13-16.19-.28l-11.19-.28,4.34-4.35a28.47,28.47,0,0,0,6.59-10.5,31.53,31.53,0,0,1,14.52-16.92c4.37-2.5,5.32-2.72,6.88-1.58,1.31,1,1.78,2.56,1.71,5.86,0,2.56.37,4.55,1,4.55S100,224.21,99.71,224.9Zm31.17,2.75c-.49,0-.88-1.38-.88-3.06s.39-2.81.88-2.52.87,1.68.87,3.06S131.36,227.65,130.88,227.65Z"/><path d="M215.69,178.73c-1.44-1.74-5.29-13.57-6.21-19.08-.55-3.34-3.3-30.64-3.83-38-.46-6.43-2.8-8.6-9.65-8.92-2.86-.14-15.77-1.94-21.48-3-3.17-.59-6.15-.82-6.64-.52s-.88-.51-.88-1.81a5.7,5.7,0,0,0-1.1-3.46c-.8-.8-.53-1.67,1-3.2a7.56,7.56,0,0,0,2.1-3c0-.48,1.69-1.15,3.75-1.48a9.7,9.7,0,0,0,6.5-4.08C181.79,89,182,88.08,182,79.67V70.58l-4.75-2c-4.11-1.77-5.93-2-13.52-1.36-10.31.81-10.28.77-11.81,12.2-1.32,9.76-.45,12.29,5.42,15.73,4.79,2.81,5.89,5.34,4.92,11.32-.52,3.21-.69,3.33-4.15,2.79a194.23,194.23,0,0,0-24.24-1.71c-8.37-.15-9.1-.33-9.89-2.41a5.18,5.18,0,0,0-1.82-2.6c-1.12-.4-1.43-3.11-1.26-10.85.16-6.61.86-7.91,4.68-8.6,1.6-.29,3.21-1.06,3.58-1.71.45-.81,3.78-1.15,10.27-1.07,5.29.07,9.84-.25,10.12-.7.43-.7,1.43-10.86,1.57-15.92a12.83,12.83,0,0,1,.82-3.5c3-7.67,6.05-24.41,6.06-33.28,0-2.91.63-6.28,1.39-7.5,2-3.18,2.77-13,1-12.3s-1.77-.61-.16-2.22c2.14-2.13-.45-3.09-8.2-3C131.37,2,110.52,1.17,107.76.11c-1.11-.42-1.68.32-2.13,2.73-.33,1.82-.79,4.21-1,5.31S103.69,14,103,18.65c-1.69,12.07-1.76,12.5-2,12.5a11.19,11.19,0,0,0-.62,3c-.8,6-2.63,18.19-4,26.75A116.27,116.27,0,0,0,95,72.58c0,2.82.2,3,5.75,3.56,3.16.35,6.38.72,7.16.82a2.52,2.52,0,0,1,1.69,2.19c.39,2.64,4,5.5,7,5.5,2.14,0,2.33.37,2,3.75-.8,8.07-1.86,13.25-2.7,13.25a6.4,6.4,0,0,0-2.74,1.85c-1.29,1.29-4.57,2.2-10.82,3-4.93.63-9.45,1.15-10,1.15s-.9-1.84-.6-5c.27-2.87,0-5.61-.6-6.34s-.76-1.62-.38-2c1.32-1.31,1-7.61-.36-7.61-.74,0-1-.64-.72-1.5a2.26,2.26,0,0,1,1.75-1.5c1.45,0,1.86-3.73.5-4.57-.62-.38-.51-1.17.27-2.12,1-1.26.93-1.77-.64-2.92C89.28,72.4,88,72.26,88,73.65a1,1,0,0,0,1,1c.53,0,.71.68.39,1.5-1,2.69-2,1.59-2.21-2.62-.24-4-.18-4,1.55-2.32s1.83,1.66,2.12.13c.18-.92-.61-3-1.75-4.59a11.58,11.58,0,0,1-2.07-4,10.14,10.14,0,0,0-1.64-3.64,17.69,17.69,0,0,1-2-6.71c-1-10.54-1.12-20.08-.23-22.41.59-1.56.61-3,0-3.67-1.33-1.63-1.71-4.91-.73-6.46,1.18-1.89-.34-3.05-4.41-3.38l-3.48-.29.24,4.75c.18,3.5-.12,4.75-1.14,4.75a2.45,2.45,0,0,0-2,1.58c-.81,2.12-.82,2.06.9,3.79s1.91,3.75.55,14.63c-1.23,9.72-2.17,12.61-6.31,19.26-1.62,2.61-3,5.83-3.1,7.15s-.52,2.17-1,1.89-.75,1.22-.65,3.34a27.89,27.89,0,0,1,0,4.61c-.12.41-.32,5.14-.43,10.5s-.49,10.43-.82,11.25a20.15,20.15,0,0,0-.93,3.5c-.26,1.59-1.14,2-4.31,2.09-8.62.19-20.12,1.47-22.75,2.54a5.18,5.18,0,0,0-3.27,3.75C28.16,122.1,19.7,147,18,149.15a15.78,15.78,0,0,0-1.51,4.46,34.57,34.57,0,0,1-2.56,7c-1,1.95-3.87,8-6.39,13.44s-5.35,10.47-6.3,11.18c-1.65,1.21-1.65,1.31,0,2a2.61,2.61,0,0,1,1.75,2c0,2,4.92,5.47,7.71,5.47,2.18,0,2.38.31,1.8,2.92s-.17,3.28,2.51,5.25a17.11,17.11,0,0,0,4.06,2.45,3.79,3.79,0,0,1,1.17.31c.14.09,2.94.4,6.22.67,4.53.38,6.24.14,7.05-1,1-1.35,4.8-2.15,8.57-1.79.87.08,2.1,1.29,2.74,2.68a6.77,6.77,0,0,0,2.91,3.2A9.76,9.76,0,0,1,51,212c1.18,1.46,3.11,2,8.36,2.21,3.74.17,7.3.79,7.9,1.4h0a3.66,3.66,0,0,0,1.78,1.09c1.15,0,3.06-2.8,2.22-3.26-1.15-.62-9.16-2.53-13.58-3.24-2.69-.43-5.28-2-9-5.55-5.87-5.6-7.68-5.95-17.57-3.42-6.68,1.71-12,1.23-13.93-1.26-1.35-1.79-1.73-7.27-.5-7.27.41,0,.81-2.71.89-6a35,35,0,0,1,1.71-9.92,87.71,87.71,0,0,0,3.11-13.48c1.81-11.27,1.77-10.59.65-10.59-.72,0-1.5,2.49-2.19,7-.38,2.54-3.13,14.72-4.39,19.5-.87,3.3-1.92,7.35-2.34,9-1.07,4.21-4.35,4.5-7.11.62l-2.13-3,2.85-5.32c1.56-2.92,3.55-7.11,4.41-9.31s2.91-6.92,4.53-10.5c4.38-9.64,7.27-16.73,9.8-24a89.94,89.94,0,0,1,3.85-9.5,13.45,13.45,0,0,0,1.6-4.6,18.71,18.71,0,0,1,1.07-4.64c1-2.93,1.35-3.07,9.75-4.13,16.12-2,17.19-2,17.19,1.37,0,2-.5,2.5-2.5,2.5-1.38,0-2.5.19-2.5.42a9.28,9.28,0,0,1-.58,1.91c-.45,1.19.34,1.52,3.75,1.57a67.55,67.55,0,0,1,7.83.61c7.32,1.16,36,2.89,41,2.47,2.2-.18,61.1-.19,65,0,.82,0,4-.2,7-.53s7.52-.67,10-.77c3.25-.13,4.5-.6,4.5-1.68,0-.83-.45-1.48-1-1.46s-5.05.46-10,1a105.56,105.56,0,0,1-11,.72c-1.1-.1-18.31-.23-38.25-.28-21.46,0-36.25-.47-36.25-1s-1.69-1-3.75-1c-3.73-.08-3.74-.09-.83-1,1.61-.48,12.41-1.11,24-1.41s22.2-.72,23.58-1a46.6,46.6,0,0,1,4.81-.51c1.43,0,2.05-.5,1.62-1.19s-2.57-.94-5.54-.65c-3.95.38-5.18.09-6.62-1.52-1.75-2-1.7-2,3.73-1.34,3,.36,9.05.7,13.4.75a59.83,59.83,0,0,1,10.64.88c1.69.49,3.17.38,3.83-.28s2.74-.7,6.85.19c11.42,2.48,11.21,2.39,6.78,3.06-2.2.33-4.49.25-5.09-.18s-5.21-.67-10.27-.54c-7.55.2-9.14.51-8.9,1.74s2.41,1.52,11.77,1.6c6.32.06,13.07-.41,15-1,3.44-1.12,5.74-1.11,15.25.06,4.54.56,4.75.72,4.75,3.73a84.83,84.83,0,0,0,1.56,11.15c.86,4.4,1.78,10.92,2.06,14.5.65,8.32,5.07,29.92,6.46,31.6s.82,6.61-.69,7.11-2.92-5.33-5-19.21c-.9-6.05-1.84-11.9-2.08-13s-.7-4.59-1-7.75-1-5.75-1.59-5.75-.73,2.75-.23,7.75c1.09,11.11,2.29,21.28,2.92,24.75.3,1.65.8,5.92,1.12,9.5.61,6.84,1.11,9.89,2,12.23.61,1.56-3.31,3.77-6.68,3.77-1.13,0-3.42,1.14-5.08,2.54s-3.2,2.37-3.41,2.15-.65-4.51-1-9.55c-1.08-17.45-2.35-19.48-1.8-2.88l.53,15.76-3,3c-3.74,3.74-5.64,3.74-12.48,0-6.17-3.39-6.66-3.51-6.66-1.71,0,1.55,10.61,8.71,12.91,8.71.89,0,3.34-1.16,5.44-2.59s4.07-2.33,4.39-2c1.07,1.08,3.26-1.63,3.26-4.05a3.3,3.3,0,0,1,2.4-3.31,7.45,7.45,0,0,0,3.06-2c.36-.58,1.76-1.06,3.11-1.06,2.52,0,6.32-1.72,7.71-3.5.44-.55.55-2.66.25-4.68-.46-3.18-.22-3.78,1.72-4.4C216.58,186.7,218.34,181.92,215.69,178.73ZM83,59.09c0,.25-.45.72-1,1.06s-1,.14-1-.44a1,1,0,0,1,1-1.06C82.55,58.65,83,58.85,83,59.09Zm0,14.5c0,2.42-.56,2.66-1.35.59A1.76,1.76,0,0,1,82,72.13C82.57,71.8,83,72.46,83,73.59ZM82,48.71c.68,1.27.69,1.94,0,1.94-.94,0-3.07-3.12-3.07-4.49C79,45.06,81,46.7,82,48.71ZM80.6,29.92c.33.33.23,1.19-.22,1.92a8,8,0,0,0-.52,4.06c.23,2.21-.12,2.75-1.79,2.75S76,38,76,35.15s.38-3.5,2-3.5c1.1,0,2-.52,2-1.16S80.27,29.59,80.6,29.92ZM76.37,52.4c-.33,1.24-1,2.25-1.37,2.25-1,0,0-12.24,1.11-13.45S77.32,48.86,76.37,52.4ZM78,20.15c.55-.34,1,.09,1,.94s-.45,1.56-1,1.56a1,1,0,0,1-1-.94A2.14,2.14,0,0,1,78,20.15Zm-3.57,7.61c.84-1.36,5.57-1.48,5.57-.14,0,1.52-3.47,3-4.93,2.07A1.45,1.45,0,0,1,74.43,27.76Zm-2.85,35.4,2.29-2.88.71,2.84a6.83,6.83,0,0,1-.29,4.44,4.62,4.62,0,0,1-2.52,1.89C69.24,70,69.13,66.23,71.58,63.16Zm1,10.49c-.86,0-1.56-.45-1.56-1a1,1,0,0,1,.94-1,2.14,2.14,0,0,1,1.56,1C73.84,73.2,73.41,73.65,72.56,73.65Zm-4.64,42c-2.38,0-3-.39-2.74-1.75.2-1.06,1.42-1.88,3.08-2.07,2.2-.25,2.74.09,2.74,1.75S70.36,115.65,67.92,115.65Zm6.08,0c-.55,0-1-.9-1-2s.45-2,1-2,1,.9,1,2S74.55,115.65,74,115.65Zm5-12.75L79,107.65H73.23a43.91,43.91,0,0,0-8.09.65l-2.35.63.43-12.4c.23-6.81,1-13.37,1.6-14.56.94-1.75.89-2.25-.22-2.5s-1-1.25.69-5.08c1.14-2.61,2.5-4.75,3-4.75,1.16,0-.11,5.38-1.37,5.84s-1.15,2.9.22,3.75c.63.39,3.38.84,6.11,1a21.32,21.32,0,0,1,5.41.74C79.06,81.39,79.18,88.5,79,102.9Zm.52-29.32c-1,1.57-2.54,1.31-2.54-.43,0-.82-.44-1.5-1-1.5s-.72-.65-.41-1.45c.46-1.21.9-1.14,2.57.42C79.3,71.65,79.91,73,79.54,73.58Zm7.78,20.85c-.64.41-1.32,2.54-1.51,4.73l-.33,4-.74-4c-.41-2.2-.81-4.45-.9-5a10,10,0,0,1,.57-3.25c.54-1.67.33-2.25-.81-2.25s-1.32.55-.88,1.72c.59,1.52.48,1.55-.93.25-1.11-1-1.29-1.84-.58-2.71.56-.68,1.38-1,1.83-.73s1.1-.4,1.46-1.51c1.26-4,2.67-2.06,2.2,3-.32,3.34-.09,5,.66,5S88.17,93.89,87.32,94.43Zm13.48,21c-.66.66-1.45,1.14-1.75,1.06s-2.13-.42-4-.75c-2.9-.51-3.5-1-3.51-3.11,0-2.32.36-2.52,5.25-2.72s5.26-.06,5.26,2A5.63,5.63,0,0,1,100.8,115.45Zm52.76-65.8c-.24,0-.72-.45-1.06-1s-.14-1,.44-1a1,1,0,0,1,1.06,1C154,49.2,153.8,49.65,153.56,49.65ZM111.69,73.5a4.06,4.06,0,0,1-3.89.57,18.16,18.16,0,0,0-5.59-.55,11.25,11.25,0,0,1-4.11-.3c-.44-.28,0-5.17,1-10.86s2-12.58,2.26-15.28c1.1-10.74,4.47-31,6.5-38.93.68-2.71,1.23-3.05,5.7-3.57a63.52,63.52,0,0,1,12.76.55,61.77,61.77,0,0,0,15,.31,58.66,58.66,0,0,1,11.51-.24c4.25.59,4.31.64,3.62,3.77-1,4.33-2,11.38-4.41,29.68-1.12,8.53-2.75,20.56-3.64,26.75l-1.6,11.25h-8.34c-6.84,0-8.51-.31-9.3-1.71s-1.37-1.52-3.3-.58h0a24.79,24.79,0,0,1-6,1.64c-3,.41-3.94.1-5.11-1.66S113,72.38,111.69,73.5Zm2.88,7.27c-.47-.77.88-1.12,4.29-1.12a33.25,33.25,0,0,0,6.81-.57c1.65-.52,1.66-.47.15.51h0C123.24,81.25,115.38,82.08,114.57,80.77Zm1.93,23.88c.82,0,1.5.45,1.5,1s-.68,1-1.5,1-1.5-.45-1.5-1S115.68,104.65,116.5,104.65Zm-10.94,10c-1.76,0-2-.6-.63-1.46a1.16,1.16,0,0,1,1.56.44C106.84,114.19,106.42,114.65,105.56,114.65Zm10.1-1c-3.9,0-9.66-2.52-9.66-4.18,0-.41,1-.37,2.25.07a18.16,18.16,0,0,0,6.36.39c3.52-.37,4.19-.13,4.66,1.66S119.39,113.65,115.66,113.62Zm9.54-1a9.12,9.12,0,0,0-2.62.61c-1.13.43-1.58,0-1.58-1.5,0-2.45,2.2-2.78,4-.61C125.75,112.06,125.83,112.65,125.2,112.65Zm37.05-42.37c5.75-1.54,15.52-.07,13.43,2-.81.81-11,1.23-13.93.58C159.31,72.35,159.57,71,162.25,70.28Zm-3.87,21.53c-3.68-2.33-4.55-5.09-3.85-12.2.65-6.46,1.28-7.59,3-5.27,1.13,1.55,2.85,1.81,12,1.81h10.65l-.66,6c-.47,4.28-1.32,6.67-2.95,8.36C173.25,93.89,162.85,94.63,158.38,91.81ZM164,98.23a1.58,1.58,0,0,1,1.58-1.58c.87,0,1.41.53,1.19,1.19C166.15,99.69,164,100,164,98.23Z"/><path d="M116.41,33.67c2.25.56,5.44,1.43,7.09,1.94,9.11,2.81,22.5-4.94,22.5-13,0-6.22-9.28-12.94-17.88-12.94-5.36,0-12.77,3.33-13.67,6.14-1,3.25.35,3.4,3,.32,2.13-2.48,3.31-2.91,8.89-3.27s7-.06,10.95,2.24c5.42,3.18,6.64,6.44,4.13,11.1-2.28,4.22-7.62,7-13.34,6.91C117.3,33,110.9,28.67,113,23c.69-1.81.7-3.05,0-3.71s-1.34-.09-2,1.72C108.61,27.43,110.66,32.25,116.41,33.67Z"/><path d="M126.25,54.4c-.24.74.44,1.25,1.67,1.25S130,55,130,54.08C130,52.24,126.88,52.51,126.25,54.4Z"/><path d="M113,49.11c.84,1,3.72,1.55,9.37,1.75,4.49.16,9.85.38,11.91.48,3.92.2,4.9-1,2.14-2.49-1.3-.73-1-1,1.5-1.53,5.52-1.1,3.78-3.33-2.64-3.39A50.73,50.73,0,0,1,124,42.32c-5.18-1.47-8.91-2-11.72-1.78-1.07.1-4.28,5-4.28,6.56,0,.31.84.55,1.88.55A4.6,4.6,0,0,1,113,49.11Zm.78-5.68c3.14-.68,18.25,2.92,18.25,4.34h0c0,.76-4.66.89-5.4.15a30.64,30.64,0,0,0-5.68-.42C114,47.35,108.94,44.45,113.75,43.43Z"/><path d="M170.14,149.65c1.54,0,.51-12.78-1.16-14.34-1-.92-1.11,0-.62,4.34.34,3,.63,6.51.63,7.75S169.51,149.65,170.14,149.65Z"/><path d="M171.84,183.9l-.17,5.25-.58-5.5c-.34-3.16-1-5.29-1.59-5a1.22,1.22,0,0,0-.74,1.3c.15.43.29,5.72.32,11.74s.46,11,1,11,.95-1.91,1-4.25c0-5.29,1.43-3.27,2.41,3.5.37,2.61,1.15,4.75,1.73,4.75s.76-.75.41-1.66-.92-7.21-1.26-14C173.69,178.57,172.14,174.14,171.84,183.9Z"/><path d="M115.43,51.46c-3.55-1-5.43-.39-5.43,1.66h0c0,1.15,1.13,1.53,4.58,1.53C119.79,54.65,120.28,52.78,115.43,51.46Z"/><path d="M177.38,251.65c-1.85,0-1.75,1.49.24,3.48h0c2,2,2.48,1.62,1.72-1.27C179,252.64,178.14,251.65,177.38,251.65Z"/></g><text class="cls-1" transform="translate(36.76 159.9)">Réserver une <tspan x="46.85" y="28.8">table</tspan></text></svg>