<svg xmlns="http://www.w3.org/2000/svg" viewBox="0 0 328.27 176.13"><defs><style>.cls-1{fill:#7f7f80;}.cls-1,.cls-2,.cls-3{fill-rule:evenodd;}.cls-2{fill:none;}.cls-3,.cls-4{fill:#783510;}.cls-4{font-size:100px;font-family:PantherdamSignature, Pantherdam Signature;}</style></defs><g id="Calque_2" data-name="Calque 2"><g id="Calque_1-2" data-name="Calque 1"><path class="cls-1" d="M99.69,25c.77-.09,1,.4.88,1.17C99.78,26.14,99.16,25.49,99.69,25Z"/><path class="cls-1" d="M99.69,26.75c-4.51,2.2-8.55,14.88.88,14.68v2c-2.46.74-1.73-.33-4.11,0,0-1.68-1.92-1.4-2.93-2-.06-1.35-.86-2.65-.88-4.41C92.58,33.16,96.66,21.86,99.69,26.75Z"/><path class="cls-2" d="M138.44,48.76c1.29.38.25,3.08.58,4.41-.84-.06-1.49.07-1.76.58-.26-.81-1.45-.69-1.46-1.76C137.38,51.62,137.15,49.44,138.44,48.76Z"/><path class="cls-2" d="M70.63,52.29a2.36,2.36,0,0,1-1.76,1.46C68.83,52.64,69.64,52.37,70.63,52.29Z"/><path class="cls-1" d="M95.58,53.46c.92.83.34,3.65,1.76,4.7,1.44.32,3.06.46,3.52,1.76C97.34,59.71,94.23,57.58,95.58,53.46Z"/><path class="cls-2" d="M137.85,54.05c.72.93-.24,2.69-.29,3.81C135.45,57.67,137.14,54.87,137.85,54.05Z"/><path class="cls-2" d="M134.33,54.63h.88a4.36,4.36,0,0,1-.59,2.65C133.17,57.46,134.19,55.43,134.33,54.63Z"/><path class="cls-2" d="M68,54.93c.27.39-.08,2.65-.88,2.93C66.9,56.38,67.63,55.85,68,54.93Z"/><path class="cls-2" d="M91.18,56.1c-.45,2-.6,2.77.29,4.41-2.44-.95-4.37,1.27-4.11,4.69-1.79-2.44,1.43-6.53-.29-9.1C87.67,55,89.68,57.9,91.18,56.1Z"/><path class="cls-2" d="M130.81,60.51c-8.17-3.93-15.28,1.63-20,5.57,3.41-4.81,8.27-8.17,16.44-8.22C128.48,58.72,130,59.28,130.81,60.51Z"/><path class="cls-2" d="M151.94,59.92c1.25,1.12,3.67.25,4.11,2.64.34,0,.52-.06.59-.29.68,2.64,4.46,2.18,4.4,5.57,3.71,3.26,4.92,8,5.28,14.09-.64,1.51-2,2.34-2.93,3.53-.6-1.2,1.46-2.25.88-4.41-1.84,0-1.4,2.33-2.64,2.94-.87-.8.16-2.17,0-3.23-.06-.24-.3-.29-.3-.59-7-3.14-15.52-4.82-23.77-6.75,1.72-5.62-2.13-10.44-5.87-13.79-.09-.48.27-.51.29-.89,1.17-.64,3.63-.4,3.82.89C141,58.21,147.74,64.56,151.94,59.92Zm-9.69,2c-1.41.75-1.26,3-2.93,3.53.11,2.33,1.19,3.69,1.76,5.57,1.18.1,1.42-.73,2-1.17-.19-2-1.95-3.77-.58-5.58,2.23,1.69,1.55,6.27,3.81,7.93,2,.33,2.16-2.48,1.76-5,.38-.41,1.28-.29,2.06-.3v1.47c2.77,1.34,2.53,5.69,5.28,7,.89-.68,1.93-1.2,2.35-2.35,1.16,1.17,1-.7,2.94-.3-.52,2.57,1.44,2.67,1.46,4.7,4-3.08-1.28-9.62-4.4-11.15-.76.37.23,1.75-.29,1.76-3.12-1.87-9-8.17-11.45-2.06C145.24,64.27,144.49,62.38,142.25,62Z"/><path class="cls-2" d="M154,80.17c-.58,1.42-3.17,1.78-5,2.06-4,.61-8.57-.17-12,0-4-4-9.24-8.24-17.32-10-5.07-1.1-10.61-1.23-15.56-1.76a21.42,21.42,0,0,0-2.93-.59c-.94,0-2.09.67-2.94.59-2.48-.25-8-3.93-7.63-6.17.3-1.93,2.1-2.75,3.52-1.17.45-.16,0-.31-.29-.3.61-1,1.24.5,1.76.59,1.28-.2,1.65.5,2.94.29C115.82,71,135.51,74,154,80.17Z"/><path class="cls-1" d="M146.07,66.08c2.47-6.11,8.33.19,11.45,2.06.52,0-.47-1.39.29-1.76,3.12,1.53,8.44,8.07,4.4,11.15,0-2-2-2.13-1.46-4.7-1.94-.4-1.78,1.47-2.94.3-.42,1.14-1.46,1.67-2.35,2.35-2.75-1.36-2.51-5.71-5.28-7V67c-.78,0-1.68-.11-2.06.3.4,2.51.24,5.32-1.76,5-2.26-1.66-1.58-6.25-3.81-7.93-1.37,1.81.39,3.62.58,5.58-.63.44-.87,1.27-2,1.17-.57-1.88-1.65-3.24-1.76-5.58,1.67-.48,1.52-2.78,2.93-3.52C144.49,62.38,145.24,64.27,146.07,66.08Z"/><path class="cls-2" d="M89.12,62.85c.48-.08.51.28.88.3a3.36,3.36,0,0,0,0,2.64C88.19,66.2,88.87,63.67,89.12,62.85Z"/><path class="cls-2" d="M86.77,65.79c1.56.77,2.41,3.42,4.41,2-.11,1.37-1,2-.59,3.82a5,5,0,0,0-3.23,0C88.05,69.78,87,68.24,86.77,65.79Z"/><path class="cls-1" d="M103.8,72c.12,1-.88.89-1.17,1.47,1.27.68,2.19-1.51,3.81-1.47-.59,1.86-2.88,2-4.69,2.65a1.45,1.45,0,0,0,.29-.89c-1.79,1.35-3,1-4.7,1.47C98.2,72.18,101.13,71.72,103.8,72ZM99.1,74c.85-.34,3.24-.66,2.65-1.47C101.11,73.28,99.18,72.71,99.1,74Z"/><path class="cls-2" d="M101.75,72.54c.59.81-1.8,1.13-2.65,1.47C99.18,72.71,101.11,73.28,101.75,72.54Z"/><path class="cls-1" d="M108.2,72.54c.24.06.3.29.59.29v.59a20.44,20.44,0,0,1-2.64.59C105.92,72.61,108,73.49,108.2,72.54Z"/><path class="cls-2" d="M137.56,84.58c-2.92.81-5.81-2.66-8.22-4.41-4.2-3-9.33-6.08-17.32-4.69,3-2,8.11-1.33,11.74-.88.67,1.1,1.8,2.6,3.23,2.05.12,1.55,1.59,1.73,2.93,2C131.94,81.19,134.72,82.91,137.56,84.58Z"/><path class="cls-2" d="M94.11,78.7c2.17-.35,1.37,2.06,0,2.06C94,79.54,94.5,79.62,94.11,78.7Z"/><path class="cls-2" d="M105.27,81.35c.55.56-.18.53,0,1.46-.72-.43-.66-1.2-1.76-.58C103.48,81.32,104.39,81.35,105.27,81.35Z"/><path class="cls-2" d="M103.8,82.52c.59,2.17.89,2.52,1.47,4.7a5.6,5.6,0,0,0-2.35-.3A15,15,0,0,1,103.8,82.52Z"/><path class="cls-2" d="M154.29,82.81c.94-.25.91.47,1.47.59a17.08,17.08,0,0,0-1.18,3.82c-.9-.22-.86.5-1.76.29C152.49,86.22,153.78,84.23,154.29,82.81Z"/><path class="cls-2" d="M98.81,83.69c1.22,0,.31,2,.59,2.94C98,86.21,99,85.21,98.81,83.69Z"/><path class="cls-2" d="M137.85,84.87c1.49,0,1.48.57,2.35.59a4.76,4.76,0,0,1-.59,2.05c.26.43.44.93,1.18.88-.9,1.41.82,1.37.58,2.94-1.73-.24-1.51.84-2.93.29.19-2-.52-3-2.06-3.23C138,87.67,137.62,86.8,137.85,84.87Z"/><path class="cls-2" d="M157.81,84.87c.86.25-.38.74,0,1.47.06.23.3.29.29.58,1.33.16,2.12-.23,2.35-1.17,1,.18.39,2,1.18,2.35-.44.93-2.42.32-2.94,1.17-.8-1-2.37-1.15-2.93-2.35C156.89,87.69,157.3,85.65,157.81,84.87Z"/><path class="cls-2" d="M164.56,86.92a4.22,4.22,0,0,0,2.06,0c.3,1.17,1.47,1.47,2.35,2.06-.38,1.25,0,1.45,0,2.93a13.44,13.44,0,0,1-3.82.3c1.29-.66.23-2.07-.88-2.06C164.68,88.7,163.56,88.32,164.56,86.92Z"/><path class="cls-2" d="M110,88.1c.48,1.18,2.56.77,2.35,2.64-1.33-.63-3.35-.57-3.81-2C109,88.52,109.72,88.53,110,88.1Z"/><path class="cls-2" d="M87.07,89c-.41.67-1,1.14-1.47,1.76-3-1-5.93-.26-8.22-.88C81.56,89,84.23,88.58,87.07,89Z"/><path class="cls-2" d="M172.19,88.69a1.9,1.9,0,0,1,2.06,1.17c1,.46.18-1,.88-.88,1.09,0,.74.43.59,1.17,1.05.25,1.42-.66,2.05,0C175.9,91.93,169.86,91.64,172.19,88.69Z"/><path class="cls-2" d="M107,90.74c-.7,2-4.84.16-6.17.88-.4-.38-.29-1.28-.29-2.05C103.23,88.44,104.36,90.18,107,90.74Z"/><path class="cls-2" d="M155.17,89.57c.3,1.26,1.67,1.45,2.05,2.64-2.44,1.17-6.49.75-10,.88.32-1.54,2.08-1.65,2.35-3.23C152.25,89.35,153.16,90.48,155.17,89.57Z"/><path class="cls-2" d="M135.5,90.45c1,.07,1.17,1.91.59,2.64-2.7,0-4.47-.61-6.46,0,1-.46.41-1.5.88-2.06C132,89.23,134.16,91,135.5,90.45Z"/><path class="cls-2" d="M159.57,90.45c.26,1,2.3.24,2.35,1.46.34,0,.25-.53.29-.88.91-.22.36,1,1.47.59-.34,1.62-3.29.62-4.7,1.17C159.54,92.37,159,90.87,159.57,90.45Z"/><path class="cls-2" d="M82.37,91.62c.5-.38,3-.28,3.23.59A6.89,6.89,0,0,1,82.37,91.62Z"/><path class="cls-2" d="M95.87,78.12c-1.45-2.52,0-3,1.47-4.41,1-.9,1.1-2.22,2.64-2.64,3.83-1,9.93,1.66,13.51,2.06C109.83,75,101.68,76.12,95.87,78.12Zm1.47-2.94c1.68-.44,2.92-.12,4.7-1.47a1.45,1.45,0,0,1-.29.89c1.81-.63,4.1-.79,4.69-2.65-1.62,0-2.54,2.15-3.81,1.47.29-.58,1.29-.46,1.17-1.47C101.13,71.72,98.2,72.18,97.34,75.18ZM106.15,74a20.44,20.44,0,0,0,2.64-.59v-.59c-.29,0-.35-.23-.59-.29C108,73.49,105.92,72.61,106.15,74Z"/><path class="cls-2" d="M150.18,84.87c1.71,1.87-1.68,3.29-2.06,5-2-.22-1.09,2.42-2.93,2.35C146.68,89.59,149.12,87.92,150.18,84.87Z"/><path class="cls-3" d="M134.62,2.68c.17,1.54-1.39,1.35-1.76,2.35C130.94,4.34,128.33,6.31,127,8a23.65,23.65,0,0,0,1.17,3.23c4.23-2.65,10-6.82,15.85-5.87v.59C142.16,7.72,140.36,8,138.14,8c.15,3.18,2.79,3.87,4.11,5.87,1-.23,1.08-1.47,2.06-1.76,6-1.24,9.43,6.73,3.52,8.22-.38.69-.12,2-.59,2.64-1.57.29-4,0-4.4-1.76.63-.54,2.15-.2,3.23-.29,0-.78.11-1.68-.29-2.06-1,.31-.63.75-1.47,0-.71.17.14,1.9-.88,1.76-2.53-2.55-2.6-7.57-7.05-8.22-.33-1.21.62-1.14.59-2,.09-.68-.85-.33-.88-.88-2.9.33-3.66,2.79-6.75,2.93,0,.35-.07.53-.3.59,3,5.19,4,18.14,8.22,23.19,1.3,1.57,7.46,4.7,8.81.88-1.44-.94-4.5,1.64-6.46-.88,2.91-2,11.31-1.43,9.1-5.87-.65,0,.38.74,0,1.47a5.93,5.93,0,0,0-4.4,1.47c-1-1-3.3-.62-4.11-1.76,1.75-2.34,10,.57,10-4.41C148,28.11,143.57,29,142,26.45c2.68-.44,5.85-.41,7.93-1.46-.09-1.78-.72-3-.88-4.7,5.43,2.14,2.11,9.81,1.17,14.38-1.14.33-1.08,1.85-2.35,2.06.56,3.72-4.61,3.91-5.58,7a21.53,21.53,0,0,0,6.17,2.06,3.66,3.66,0,0,1-.59,2.64,45.27,45.27,0,0,1-6.46-1.17c-.77,4.06-1.12,6.72-2.05,10.56,6.75,1.16,13.9-1,18.49,2.35,1.1.8,2.29,2.37,3.52,3.52,2.16,2,3,2.66,4.11,5.29a34.44,34.44,0,0,1,3.23,14.09c.29,1.36-1.75.4-1.47,1.76,3.22,4.1,11.94.38,15.56,4.7,0,1.64-1.11,2.21-1.47,3.52-11,3.24-21.43,7.14-35.81,7-.72-.45-.28-2.06-1.76-1.76,8.06-1.14,17.77-.62,24.37-3.23-11.73-.64-23.77.9-37.58-.29-.64.05-.93-.24-.88-.88-2.55,1-8.44.7-10.57-.29-10.56.86-23.87-.7-31.4-1.47.58,2.54,4.44,1.8,6.75,2.35,3,.7,7.49,1.93,12,1.76-.3.78-1.7.45-1.17,2.05-8.76-.62-19.4-2.82-26.42-5.87-.56.13-.74.64-1.47.59-.53-1.53-2.66-.45-3.52-2,.24-1,0-1.37.29-2.65,5.6-2.46,15.23-3.09,21.72-2.34a2.67,2.67,0,0,1-1.46,2.34c-.49-1.3-2.52-.77-3.82-.29,1.75,2.7,7.15-1.34,8.51,1.18,1.2-.67,1.82-1.9,3.23-2.35-1.67-.94-.2-3.84-.88-5.29-1.46.52-1,4.64-.88,5a2.42,2.42,0,0,1-2.64,1.18c.2-.79-.61-.57-.88-.88-.33-2.29.8-3.12.88-5-.34-1.12-1.34-.71-1.17-1.76-1.55.12-1.12,2.21-2.35,2.64-.71.12-.64-.54-1.47-.3.37-1,.1-2.64.59-3.52-.27-.52-1.08-.48-1.18-1.17.19-2.75,1.81-4.07,3.23-5.58-1.07-.68-.35-1.74-2.35-1.76-.79,2.15-5.2,5.41-7.92,2.64.09-.69.46-1.1.29-2-1.44-.17-1.61.93-2,1.76-2.42-.62-5-1-5.58-3.53-2.2-.14-2.63-2.06-3.82-3.22-1.92.09-2.62-.27-4.11,0-1-1.07-1.34-2.77-1.17-5-5.75,1.18-4.6-11.76,2.64-10,.86-.41.77-1.78,1.17-2.65-1.54-.72-1.34-2.61-1.17-4.4-1.54,0-4.66-.1-6.46,0,0-.91-.69-1.66,0-2.35,6.33,1,10.07-1.69,15.56-2-1.37-1-.11-1.23-.29-3.23-4.5.78-7.62,2.88-11.16,2.05-.75.52-.66,1.89-1.17,2.65-1.11.4-1.9-.2-3.23.29V39.37H62.41c-1.52-3.56-1.29-8.88-3.23-12,.2-3-.42-7.31-2-9.39,1.38-.81-.9-2.85.29-4.41,1.58-.63,2.4-.36,4.11,0,1,0,.23-1.92.88-2.35,6.44.59,15-5.77,16.15,2.06.19.88.62-.28,1.17,0,.12,3.33-.88,5.45,1.17,8.22.22,1-1.19.37-.88,1.47-.06,1,.2,1.75.88,2-.49,4.87,1.66,9.65,2.65,15.26.72,4.15.6,6.16,2.64,8.81,1.27,1.66,3.7,2.16,2.93,4.7C84.7,51.82,83,47.15,81.2,42.6c-3.87-.81-5.46,1-8.52,2.06.42,2.13,2.6,2.49,2.65,5-4.41,1.26-3.76,7.6-4.41,12.62.42,1,2.16,1.34,3.23.88,1.21,1,1.59,2.91,3.23,3.52.52-.63-.78-2-.29-3.52,2.92.6,2.2,4.85,4.4,6.16,1.46-.31,2.55,0,3.82-.88.15-2.29-3-1.61-3.82-3.81-.92-2.61,1.32-5.6,2.64-7.93.88,0,1,.77,1.76.88.18-.74-.25-2.7.88-3.23a12.48,12.48,0,0,0,5-.29c1.5,1.06.88,4.89,0,6.17,5.87,1.56,11.54,3.32,17.31,5,4.13-6.12,12.35-12.14,22.31-8.8,1-4.06,4.19-6,6.17-9.1-.82-1.53-2.55-2.15-5-2.06.82-1.56-1-2.05-1.47-3.22,0-.73.46-.91.59-1.47,2.29.25,3.44,1.64,5.57,2.05.36-1.45-.62-3-.29-4.11-6.29-9.46-8.43-23.08-13.21-34.05,0-.64-.74-.63-1.47-.58.8-.93.68-1.63.88-2.65,2.25,1.41,5.13-3.33,7,0A5.36,5.36,0,0,1,134.62,2.68ZM135.8,52c0,1.07,1.2.95,1.46,1.76.27-.51.92-.64,1.76-.58-.33-1.33.71-4-.58-4.41C137.15,49.44,137.38,51.62,135.8,52ZM68.87,53.75a2.36,2.36,0,0,0,1.76-1.46C69.64,52.37,68.83,52.64,68.87,53.75Zm68.69,4.11c.06-1.12,1-2.88.29-3.81C137.14,54.87,135.45,57.67,137.56,57.86Zm-2.94-.58a4.29,4.29,0,0,0,.59-2.65h-.88C134.19,55.43,133.17,57.46,134.62,57.28Zm-67.51.58c.8-.28,1.15-2.54.88-2.93C67.63,55.85,66.9,56.38,67.11,57.86Zm20-1.76c1.72,2.57-1.5,6.66.29,9.1-.26-3.42,1.67-5.64,4.11-4.69-.89-1.64-.74-2.38-.29-4.41C89.68,57.9,87.67,55,87.07,56.1Zm40.21,1.76c-8.17,0-13,3.41-16.44,8.22,4.69-3.94,11.8-9.5,20-5.57C130,59.28,128.48,58.72,127.28,57.86Zm8.52,1.76c-.19-1.28-2.65-1.52-3.82-.88,0,.38-.38.41-.29.88,3.74,3.36,7.59,8.18,5.87,13.8,8.25,1.93,16.74,3.61,23.77,6.75,0,.3.24.35.3.59.16,1.06-.87,2.43,0,3.23,1.24-.61.8-2.91,2.64-2.94.58,2.16-1.48,3.21-.88,4.41,1-1.19,2.29-2,2.93-3.53C166,75.88,164.75,71.1,161,67.84c.06-3.39-3.72-2.93-4.4-5.57-.07.22-.25.34-.59.29-.44-2.39-2.86-1.52-4.11-2.64C147.74,64.56,141,58.21,135.8,59.62ZM98.52,63.73c-1.29.21-1.66-.49-2.94-.29-.52-.09-1.15-1.55-1.76-.59.31,0,.74.14.29.3-1.41-1.58-3.22-.76-3.52,1.17-.35,2.24,5.15,5.92,7.63,6.17.86.08,2-.56,2.94-.59a21.42,21.42,0,0,1,2.93.59c5,.53,10.49.66,15.56,1.76,8.08,1.74,13.28,6,17.32,10,3.46-.17,8,.61,12,0,1.81-.28,4.4-.64,5-2.06C135.51,74,115.82,71,98.52,63.73ZM90,65.79a3.36,3.36,0,0,1,0-2.64c-.37,0-.4-.38-.88-.3C88.87,63.67,88.19,66.2,90,65.79Zm-2.64,5.87a5,5,0,0,1,3.23,0c-.36-1.83.48-2.45.59-3.82-2,1.37-2.85-1.28-4.41-2C87,68.24,88.05,69.78,87.36,71.66Zm26.13,1.47c-3.58-.4-9.67-3.09-13.51-2.06-1.54.42-1.67,1.74-2.64,2.64-1.5,1.4-2.92,1.89-1.47,4.41C101.68,76.12,109.83,75,113.49,73.13Zm16.43,5.57c-1.34-.32-2.81-.5-2.93-2-1.43.55-2.56-1-3.23-2.05-3.63-.45-8.69-1.08-11.74.88,8-1.39,13.12,1.65,17.32,4.69,2.41,1.75,5.3,5.22,8.22,4.41C134.72,82.91,131.94,81.19,129.92,78.7ZM94.11,80.76c1.37,0,2.17-2.41,0-2.06C94.5,79.62,94,79.54,94.11,80.76Zm9.4,1.47c1.1-.62,1,.15,1.76.58-.18-.93.55-.9,0-1.46C104.39,81.35,103.48,81.32,103.51,82.23Zm-.59,4.69a5.6,5.6,0,0,1,2.35.3c-.58-2.18-.88-2.53-1.47-4.7A15,15,0,0,0,102.92,86.92Zm49.9.59c.9.21.86-.51,1.76-.29a17.08,17.08,0,0,1,1.18-3.82c-.56-.12-.53-.84-1.47-.59C153.78,84.23,152.49,86.22,152.82,87.51ZM99.4,86.63c-.28-.89.63-3-.59-2.94C99,85.21,98,86.21,99.4,86.63Zm37,1.76c1.54.23,2.25,1.27,2.06,3.23,1.42.55,1.2-.53,2.93-.29.24-1.57-1.48-1.52-.58-2.94-.74,0-.92-.45-1.18-.88a4.76,4.76,0,0,0,.59-2.05c-.87,0-.86-.61-2.35-.59C137.62,86.8,138,87.67,136.38,88.39Zm8.81,3.82c1.84.07.95-2.57,2.93-2.35.38-1.7,3.77-3.12,2.06-5C149.12,87.92,146.68,89.59,145.19,92.21Zm10.57-5.29c.56,1.2,2.13,1.4,2.93,2.35.52-.85,2.5-.24,2.94-1.17-.79-.38-.18-2.17-1.18-2.35-.23.94-1,1.33-2.35,1.17,0-.29-.23-.35-.29-.58-.38-.73.86-1.22,0-1.47C157.3,85.65,156.89,87.69,155.76,86.92Zm8.51,3.23c1.11,0,2.17,1.4.88,2.06a13.33,13.33,0,0,0,3.81-.3c0-1.48-.37-1.68,0-2.93-.87-.59-2-.89-2.34-2.06a4.22,4.22,0,0,1-2.06,0C163.56,88.32,164.68,88.7,164.27,90.15ZM108.5,88.69c.46,1.49,2.48,1.42,3.81,2,.21-1.87-1.87-1.46-2.35-2.64C109.72,88.53,109,88.52,108.5,88.69ZM77.38,89.86c2.29.62,5.17-.09,8.22.88.45-.62,1.06-1.09,1.47-1.76C84.23,88.58,81.56,89,77.38,89.86Zm100.39.29c-.63-.66-1,.25-2.05,0,.15-.74.5-1.14-.59-1.17-.7-.12.16,1.34-.88.88a1.91,1.91,0,0,0-2.06-1.18C169.86,91.64,175.9,91.93,177.77,90.15Zm-77.2-.58c0,.77-.11,1.67.29,2.05,1.33-.72,5.47,1.14,6.17-.88C104.36,90.18,103.23,88.44,100.57,89.57Zm49,.29c-.27,1.58-2,1.69-2.35,3.23,3.49-.13,7.54.29,10-.88-.38-1.19-1.75-1.38-2.05-2.64C153.16,90.48,152.25,89.35,149.59,89.86ZM130.51,91c-.47.56.11,1.6-.88,2.06,2-.61,3.76,0,6.46,0,.58-.73.39-2.57-.59-2.64C134.16,91,132,89.23,130.51,91ZM159,92.79c1.4-.55,4.35.45,4.69-1.17-1.11.43-.56-.81-1.47-.59,0,.35.06.84-.29.88,0-1.22-2.09-.45-2.35-1.46C159,90.87,159.54,92.37,159,92.79ZM85.6,92.21c-.22-.87-2.73-1-3.23-.59A6.89,6.89,0,0,0,85.6,92.21Z"/><path class="cls-1" d="M100.57,46.42c.86.12,1,1,1.47,1.46-1.29,3.56,1.95,4.28,4.11,5.29a17.92,17.92,0,0,0,.88,5.57c.67.51,2.46-.11,2.64.88s-1.25.51-1.47,1.18c-4-.46-1.71-7.29-6.75-6.75C100.12,52.09,99,49,100.57,46.42Z"/><path class="cls-1" d="M187.46,52c6.2,3.83-1.74,12-4.7,15-.26.94.76.61.88,1.18V69.6c-3.16,3.86-5.08,10-9.39,12.33-.77.43-1.88-.25-2.35.88-1-.22-1.27-1.07-1.17-2.35,3.33-.38,5-2.4,6.75-4.4-1.17-.31-2.18.34-3.52.59a4.12,4.12,0,0,1-.59-2.94c2.65-1.55,7.3-1.11,7.92-4.69-.61-.47-1.89-.27-2-1.18,1.11-4.39,6.83-5.65,6.75-10.27,1.72-.48,1.42-2.86.88-4.11C186.65,52.56,187.68,52.9,187.46,52Z"/><path class="cls-1" d="M180.12,15.89c.41,3,3.31,5,2.94,8.51-.19,1.74-2.34,7.29-3.82,7.93-.54,3.76-4,4.63-5.87,7,2.71-.23,5.41,1,6.16,3.52-.85,4.53-3.32,7.44-6.16,10,.82,1.83,1,4.24,2.64,5.29-1.9,1.23-2.73,3.53-4.4,5,1.77,2.36-.1,5.83-2.35,6.75.87-3.27,1.25-4.59.59-7.93.94-1.31,2.29-2.2,3.22-3.52,0-2.09-1.14-3.16-1.76-4.7,1.69-3.91,6.65-6.61,5-12-4.51-1-5.78,1.74-8.22,3.52.13-1-.87-.88-1.17-1.47,2.69-4.54,7.24-7.23,10.27-11.44.86-2.28.83-5.44,2.94-6.46-.8-.85-1.48-2.95.29-3.23-.24-1.72-1.48-2.43-1.76-4.11-.17-.36-1.11.19-1.76-.29C176.35,15.85,178.38,15.09,180.12,15.89Z"/><text class="cls-4" transform="translate(0 142.73)">Quai Antique</text></g></g></svg>